<?xml version="1.0" standalone="no"?>
<!DOCTYPE svg PUBLIC "-//W3C//DTD SVG 20010904//EN"
 "http://www.w3.org/TR/2001/REC-SVG-20010904/DTD/svg10.dtd">
<svg version="1.0" xmlns="http://www.w3.org/2000/svg"
 width="390.000000pt" height="189.000000pt" viewBox="0 0 564.000000 789.000000"
 preserveAspectRatio="xMidYMid meet">

<g transform="translate(0.000000,789.000000) scale(0.200000,-0.200000) rotate(90)"
fill="#000000" stroke="none">

<path d="M63 5873 c3 -1856 4 -2027 20 -2133 128 -846 659 -1467 1397 -1634
92 -21 290 -46 366 -46 l64 0 0 35 0 35 -63 0 c-197 0 -482 65 -672 154 -194
91 -305 168 -464 321 -337 326 -530 765 -571 1298 -6 82 -10 865 -10 2060 l0
1927 -35 0 -36 0 4 -2017z"/>
<path d="M293 5858 c3 -2221 -1 -2067 58 -2303 55 -219 159 -450 276 -614 70
-98 211 -248 298 -318 113 -91 284 -187 423 -237 151 -54 366 -95 500 -96 l62
0 0 33 0 34 -98 6 c-472 31 -857 243 -1129 622 -73 101 -177 305 -222 437 -40
114 -78 304 -91 448 -6 73 -10 823 -10 2068 l0 1952 -35 0 -36 0 4 -2032z"/>
<path d="M523 5863 l3 -2028 21 -116 c62 -327 199 -596 412 -810 238 -237 506
-358 859 -385 l92 -7 0 35 0 35 -92 7 c-317 24 -575 137 -794 348 -241 233
-385 547 -423 927 -7 68 -11 758 -11 2062 l0 1959 -35 0 -36 0 4 -2027z"/>
<path d="M750 5943 c0 -1957 2 -2076 36 -2241 94 -456 409 -805 823 -912 81
-21 201 -39 264 -40 36 0 37 1 37 34 l0 34 -77 7 c-167 14 -301 52 -431 121
-276 150 -463 410 -548 764 -17 71 -19 191 -21 2128 l-3 2052 -40 0 -40 0 0
-1947z"/>
<path d="M989 7848 c0 -24 0 -932 1 -2018 1 -2146 -1 -2051 57 -2219 49 -145
116 -253 222 -364 147 -153 337 -241 569 -262 l72 -7 0 35 0 35 -72 7 c-432
43 -734 366 -778 833 -6 68 -10 816 -10 2055 l0 1947 -30 0 c-28 0 -30 -2 -31
-42z"/>
<path d="M1213 5868 l3 -2023 22 -83 c84 -316 302 -511 610 -547 l62 -7 0 35
c0 35 -1 36 -47 42 -247 31 -411 146 -508 358 -70 152 -65 -3 -65 2231 l0
2016 -40 0 -41 0 4 -2022z"/>
<path d="M1450 5877 c0 -1774 2 -2020 15 -2072 53 -206 191 -329 403 -359 l42
-6 0 34 c0 34 0 34 -62 45 -155 27 -264 129 -312 290 -14 49 -16 246 -16 2068
l0 2013 -35 0 -35 0 0 -2013z"/>
<path d="M1680 5876 c0 -1949 1 -2016 19 -2058 32 -75 97 -126 179 -142 33 -6
33 -6 30 31 -3 32 -7 38 -37 46 -51 13 -78 34 -101 81 -20 42 -20 47 -20 2049
l0 2007 -35 0 -35 0 0 -2014z"/>
<path d="M2068 7766 c-3 -121 -4 -125 -34 -163 -21 -26 -45 -43 -77 -53 -44
-14 -47 -17 -47 -49 0 -33 0 -33 37 -26 55 10 109 41 137 78 47 61 56 98 56
222 l0 115 -34 0 -34 0 -4 -124z"/>
<path d="M2300 7778 c0 -62 -6 -135 -14 -163 -43 -162 -172 -282 -323 -301
-52 -6 -53 -7 -53 -40 0 -31 3 -34 28 -34 44 0 141 28 193 57 65 35 141 113
178 183 46 86 61 158 61 292 l0 118 -35 0 -35 0 0 -112z"/>
<path d="M2536 7768 c-3 -68 -13 -152 -22 -188 -44 -187 -161 -348 -314 -429
-66 -35 -193 -71 -252 -71 -37 0 -38 -1 -38 -35 0 -33 2 -35 35 -35 70 0 191
31 270 70 138 67 242 178 315 334 50 107 70 207 70 356 l0 120 -28 0 -29 0 -7
-122z"/>
<path d="M2757 7738 c-3 -111 -10 -175 -26 -231 -70 -262 -234 -470 -455 -577
-92 -44 -176 -67 -288 -76 l-78 -7 0 -33 c0 -34 0 -34 49 -34 27 0 86 7 132
16 327 62 591 307 692 644 35 115 46 181 53 326 l7 124 -40 0 -41 0 -5 -152z"/>
<path d="M2992 7733 c-20 -271 -76 -453 -200 -643 -66 -103 -201 -239 -300
-304 -136 -89 -323 -152 -489 -163 l-93 -6 0 -35 0 -35 98 7 c459 30 832 332
986 797 40 122 63 258 70 422 l5 117 -33 0 -33 0 -11 -157z"/>
<path d="M3230 7833 c0 -172 -32 -370 -86 -533 -177 -532 -606 -875 -1136
-907 l-98 -6 0 -35 0 -35 103 6 c721 42 1244 629 1284 1440 l6 127 -36 0 -37
0 0 -57z"/>
<path d="M3460 7826 c0 -167 -44 -435 -101 -606 -39 -118 -122 -293 -184 -385
-275 -409 -676 -643 -1149 -673 l-111 -7 -3 -34 -4 -34 119 6 c386 20 717 168
993 446 312 314 482 719 506 1209 l7 142 -37 0 -36 0 0 -64z"/>
<path d="M3686 7768 c-35 -612 -267 -1117 -664 -1449 -284 -236 -622 -368
-990 -386 l-123 -6 3 -35 3 -35 90 2 c464 10 935 232 1246 584 306 348 475
792 505 1325 l7 122 -35 0 -35 0 -7 -122z"/>
<path d="M3803 5878 c3 -1851 5 -2022 21 -2128 48 -321 135 -575 277 -815 90
-152 150 -228 293 -371 196 -195 390 -317 652 -407 156 -54 396 -97 544 -97
l50 0 0 35 0 35 -67 0 c-91 0 -250 24 -372 55 -312 79 -560 223 -787 456 -279
287 -444 639 -521 1110 -16 95 -17 278 -20 2122 l-4 2017 -35 0 -35 0 4 -2012z"/>
<path d="M4030 5926 c0 -1267 4 -2001 10 -2067 45 -456 214 -834 500 -1119 58
-58 143 -131 187 -163 229 -163 523 -266 807 -284 l106 -6 0 35 0 35 -92 7
c-442 31 -816 223 -1072 551 -211 269 -336 597 -366 961 -6 73 -10 874 -10
2067 l0 1947 -35 0 -35 0 0 -1964z"/>
<path d="M4263 5863 c3 -2025 3 -2028 25 -2138 46 -240 122 -432 236 -604 225
-339 567 -547 968 -590 149 -17 148 -17 148 23 l0 33 -87 7 c-573 47 -1006
418 -1163 998 -57 211 -53 56 -57 2266 l-4 2032 -35 0 -35 0 4 -2027z"/>
<path d="M4490 5948 c0 -1944 2 -2084 36 -2244 111 -540 509 -905 1037 -950
l77 -7 0 37 c0 32 -3 36 -26 36 -65 0 -246 34 -322 60 -352 122 -591 404 -695
820 l-21 85 -3 2053 -3 2052 -40 0 -40 0 0 -1942z"/>
<path d="M4730 5876 c0 -2226 -4 -2090 65 -2282 50 -140 114 -243 220 -350
155 -157 324 -235 558 -259 l67 -7 0 35 0 35 -72 7 c-435 43 -739 387 -772
875 -3 41 -5 949 -6 2018 l0 1942 -30 0 -30 0 0 -2014z"/>
<path d="M4955 5868 c6 -1964 6 -2025 26 -2107 71 -304 297 -510 602 -546 l57
-7 0 35 c0 35 -1 36 -47 42 -134 18 -220 52 -311 120 -112 85 -191 210 -232
369 -20 78 -20 104 -20 2098 l0 2018 -41 0 -40 0 6 -2022z"/>
<path d="M5190 5877 c0 -2190 -3 -2058 55 -2180 61 -129 202 -232 334 -244
l61 -6 0 31 c0 28 -4 32 -37 37 -161 27 -280 133 -327 294 -14 49 -16 255 -16
2068 l0 2013 -35 0 -35 0 0 -2013z"/>
<path d="M5420 5882 c0 -2210 -4 -2060 61 -2130 41 -44 66 -59 117 -70 l42
-10 0 39 c0 33 -3 39 -21 39 -37 0 -87 39 -108 84 l-21 42 0 2007 0 2007 -35
0 -35 0 0 -2008z"/>
<path d="M1910 5797 l0 -34 118 -6 c347 -18 695 -149 961 -361 359 -288 591
-714 678 -1248 16 -94 17 -286 20 -2125 l4 -2023 35 0 35 0 -4 2023 c-3 2197
0 2054 -57 2322 -63 291 -221 626 -394 835 -157 190 -371 363 -574 464 -217
109 -529 186 -753 186 l-69 0 0 -33z"/>
<path d="M1910 5568 l0 -35 103 -7 c131 -8 258 -30 360 -63 400 -126 698 -386
892 -778 83 -167 130 -310 166 -505 l24 -125 3 -2027 2 -2028 35 0 35 0 0
1965 c0 2155 1 2132 -59 2367 -188 741 -743 1224 -1453 1265 l-108 6 0 -35z"/>
<path d="M1910 5338 l0 -35 97 -7 c220 -15 449 -91 617 -205 193 -130 346
-312 452 -536 85 -181 126 -332 144 -537 6 -71 10 -841 10 -2065 l0 -1953 35
0 35 0 0 1964 c0 1303 -4 1999 -11 2067 -46 457 -245 833 -570 1078 -85 64
-238 146 -347 185 -95 34 -243 63 -364 71 l-98 7 0 -34z"/>
<path d="M1910 5107 l0 -33 108 -12 c196 -22 332 -69 479 -165 243 -159 410
-427 480 -770 15 -75 17 -255 20 -2104 l4 -2023 35 0 35 0 -4 2028 c-4 1996
-4 2029 -24 2127 -81 396 -305 710 -618 867 -124 63 -345 118 -472 118 -42 0
-43 -1 -43 -33z"/>
<path d="M1910 4877 l0 -34 73 -7 c112 -10 193 -33 303 -86 242 -117 419 -369
463 -660 8 -54 12 -646 13 -2082 l2 -2008 38 0 38 0 0 1958 c0 1177 -4 1996
-10 2056 -35 364 -226 659 -519 806 -77 38 -217 75 -323 85 l-78 7 0 -35z"/>
<path d="M1910 4647 l0 -35 82 -12 c217 -31 368 -141 463 -335 87 -176 79 34
82 -2242 l4 -2023 29 0 30 0 0 68 c1 37 1 944 0 2016 -1 1603 -3 1962 -15
2020 -61 318 -295 537 -612 572 l-63 7 0 -36z"/>
<path d="M1910 4416 c0 -34 1 -35 48 -42 78 -11 148 -43 202 -91 59 -53 95
-111 121 -194 18 -59 19 -130 19 -2075 l0 -2014 35 0 35 0 0 2018 c0 2189 3
2059 -55 2177 -68 139 -193 225 -362 249 l-43 6 0 -34z"/>
<path d="M1912 4184 c3 -33 7 -39 33 -44 49 -10 73 -28 100 -74 l25 -43 0
-2011 0 -2012 35 0 35 0 0 2013 c-1 1655 -3 2019 -14 2050 -29 80 -94 133
-184 152 l-33 7 3 -38z"/>
<path d="M1747 2029 c-733 -60 -1318 -533 -1566 -1264 -67 -199 -103 -399
-116 -647 l-6 -118 36 0 c30 0 35 3 35 23 0 71 23 315 36 391 131 760 618
1324 1289 1495 117 29 205 43 335 50 l115 6 3 38 c4 43 16 41 -161 26z"/>
<path d="M5497 2029 c-626 -45 -1172 -413 -1461 -987 -142 -283 -206 -544
-231 -944 l-6 -98 34 0 34 0 11 162 c25 346 94 602 236 873 263 504 719 832
1266 910 58 8 140 15 183 15 l77 0 0 40 c0 32 -4 40 -17 39 -10 -1 -67 -5
-126 -10z"/>
<path d="M1646 1784 c-503 -78 -920 -390 -1156 -863 -120 -241 -200 -584 -200
-858 l0 -63 34 0 33 0 7 128 c21 375 111 666 297 948 89 136 274 323 399 406
228 149 473 231 740 247 l105 6 3 33 3 32 -88 -1 c-48 -1 -128 -7 -177 -15z"/>
<path d="M5450 1793 c-509 -54 -957 -368 -1203 -842 -134 -257 -217 -598 -217
-888 l0 -63 35 0 35 0 0 53 c0 255 69 569 178 808 137 302 396 572 691 719
170 85 430 150 597 150 l74 0 0 35 0 35 -77 -2 c-43 0 -94 -3 -113 -5z"/>
<path d="M1730 1563 c-417 -66 -723 -256 -947 -588 -161 -239 -263 -596 -263
-922 l0 -53 35 0 35 0 0 68 c0 105 27 307 55 417 107 414 355 727 707 895 153
73 349 120 501 120 l57 0 0 35 0 35 -77 -1 c-43 -1 -89 -4 -103 -6z"/>
<path d="M5420 1555 c-584 -100 -1002 -528 -1124 -1150 -17 -83 -36 -275 -36
-357 0 -48 0 -48 33 -48 l34 0 6 118 c9 153 23 254 53 372 120 462 431 809
850 948 96 32 266 62 353 62 l51 0 0 35 0 35 -72 -1 c-40 -1 -107 -7 -148 -14z"/>
<path d="M1725 1329 c-398 -57 -736 -342 -883 -744 -55 -150 -91 -363 -92
-542 l0 -43 39 0 38 0 6 157 c10 264 64 439 204 658 61 95 220 248 320 308
140 84 351 147 492 147 l61 0 0 35 0 35 -62 -1 c-35 -1 -90 -5 -123 -10z"/>
<path d="M5465 1329 c-151 -22 -322 -89 -459 -181 -33 -23 -100 -80 -147 -127
-216 -216 -335 -494 -359 -836 -14 -202 -17 -185 30 -185 l40 0 0 114 c0 389
169 746 453 958 157 116 389 198 563 198 l54 0 0 35 0 35 -57 -1 c-32 -1 -85
-5 -118 -10z"/>
<path d="M1710 1090 c-268 -57 -482 -225 -610 -479 -74 -149 -100 -257 -107
-453 l-6 -158 30 0 30 0 7 123 c4 67 13 154 21 192 56 294 226 528 470 646 89
43 233 79 318 79 l47 0 0 35 0 35 -57 -1 c-32 0 -96 -9 -143 -19z"/>
<path d="M5445 1090 c-339 -78 -588 -329 -682 -688 -20 -76 -27 -130 -30 -250
l-5 -152 37 0 37 0 -6 43 c-9 59 10 247 34 342 41 159 144 337 254 438 63 58
177 131 250 161 67 26 210 56 272 56 32 0 34 2 34 35 l0 35 -57 -1 c-32 0 -94
-9 -138 -19z"/>
<path d="M1755 864 c-189 -40 -361 -176 -449 -354 -60 -123 -83 -217 -92 -379
l-7 -131 42 0 41 0 0 118 c0 228 68 403 206 533 93 86 221 144 344 155 l70 7
0 33 c0 33 -1 34 -42 33 -24 0 -74 -7 -113 -15z"/>
<path d="M5521 869 c-233 -46 -415 -199 -508 -429 -43 -107 -57 -206 -54 -372
l1 -68 35 0 35 0 0 118 c0 376 221 655 545 688 l65 7 0 33 c0 33 -1 34 -37 33
-21 -1 -58 -5 -82 -10z"/>
<path d="M1778 631 c-159 -51 -273 -176 -313 -342 -8 -37 -15 -112 -15 -176
l0 -113 34 0 34 0 4 138 c3 133 4 139 39 212 62 128 149 197 282 222 66 12 67
13 67 45 0 32 -2 33 -37 32 -21 0 -64 -8 -95 -18z"/>
<path d="M5531 634 c-163 -44 -292 -185 -330 -362 -6 -29 -11 -102 -11 -162
l0 -110 35 0 35 0 0 113 c0 169 30 256 121 352 57 60 116 92 198 106 61 11 61
11 61 45 0 31 -3 34 -27 33 -16 0 -52 -7 -82 -15z"/>
<path d="M1850 411 c-74 -23 -117 -61 -149 -131 -17 -37 -21 -66 -21 -162 l0
-118 35 0 35 0 0 108 c1 153 37 221 126 238 31 6 34 9 34 40 0 36 -9 40 -60
25z"/>
<path d="M5554 396 c-100 -46 -134 -118 -134 -281 l0 -115 35 0 35 0 0 110 c0
91 4 118 20 150 21 42 61 75 103 85 23 6 27 13 27 41 0 42 -14 43 -86 10z"/>
</g>
</svg>
